<?xml version="1.0" encoding="UTF-8"?>
<!DOCTYPE svg PUBLIC "-//W3C//DTD SVG 1.1//EN" "http://www.w3.org/Graphics/SVG/1.1/DTD/svg11.dtd">
<!-- Creator: CorelDRAW X7 -->
<svg xmlns="http://www.w3.org/2000/svg" xml:space="preserve" width="40.1666mm" height="46.2927mm" version="1.1" style="shape-rendering:geometricPrecision; text-rendering:geometricPrecision; image-rendering:optimizeQuality; fill-rule:evenodd; clip-rule:evenodd"
viewBox="0 0 17231 19859"
 xmlns:xlink="http://www.w3.org/1999/xlink">
 <defs>
  <style type="text/css">
   <![CDATA[
    .fil0 {fill:white}
   ]]>
  </style>
 </defs>
 <g id="Layer_x0020_1">
  <metadata id="CorelCorpID_0Corel-Layer"/>
  <g id="_1818262686976">
   <path class="fil0" d="M8182 8726c148,-83 555,-302 669,-405 -88,-110 -1048,-646 -1241,-758 -858,-497 -893,-686 -1291,-449l-2526 1464c-43,1839 0,3885 -7,5759 -194,-54 -758,-428 -972,-550l-1856 -1084c-249,-144 -712,-457 -958,-542l2 2707c179,176 800,493 1078,654 351,204 707,409 1068,610 699,389 6140,3588 6468,3727 665,-336 3417,-2056 4191,-2520 226,-135 473,-282 709,-424 217,-130 481,-314 693,-405l-6 -2555 -5124 2969c-127,79 -371,262 -507,213l-2553 -1478 19 -5681 2144 -1252z"/>
   <path class="fil0" d="M9 4921l-9 6339 2276 1273 9 -6273 1886 -1082c672,-408 639,-434 952,-246l4296 2462c84,47 157,93 237,137 39,21 77,38 108,60 62,44 -5,-10 50,40 72,65 10,-2 70,78l36 3355 2312 -1344 -33 -3303c-271,-246 -4750,-2661 -4966,-2881 651,-467 3102,-1734 3725,-2183 -95,-133 -1200,-725 -1332,-801 -1199,-683 -898,-638 -1381,-369 -937,520 -1809,1052 -2742,1584 -486,276 -5158,3022 -5494,3154z"/>
   <path class="fil0" d="M9499 3032c142,130 1118,675 1362,820 596,352 3674,2124 4085,2411l0 3072 -4400 2594c-127,75 -343,225 -477,282 -267,113 -2628,-1520 -2979,-1525l-11 2615c214,151 487,268 724,408l2114 1175c255,-71 1019,-574 1293,-736 437,-258 818,-484 1239,-734 834,-496 1655,-982 2497,-1469l-25 4259c530,-188 1873,-1142 2310,-1287l-5 -9954c-218,-196 -4256,-2519 -4846,-2884 -728,-451 -606,-412 -972,-203 -337,194 -646,386 -977,579 -232,134 -776,419 -932,577z"/>
  </g>
 </g>
</svg>
